<svg id="Layer_1" data-name="Layer 1" xmlns="http://www.w3.org/2000/svg" viewBox="0 0 220 176.9"><defs><style>.cls-4{fill:none}.cls-5{fill:#656d78;opacity:.04;isolation:isolate}.cls-8{fill:#fff}.cls-9{fill:#ccd1d9}</style></defs><g id="Layer_1-2" data-name="Layer 1-2"><path d="M136.3 170.3c-1.2-4.7-1.3-17.6-1.3-17.6h-.2v-2.5H85.1v2.5H85s-.1 8.2-.7 13.9l-1.5 5.4c-2.7 3.3-9.8 4.1-9.8 4.1v.6h73.9v-.6s-9.5-1.1-10.6-5.8z" fill="#e2e2e2"/><path d="M0 132.9V145a8.51 8.51 0 0 0 8.5 8.5h203a8.51 8.51 0 0 0 8.5-8.5v-12.1z" fill="#ededed"/><path fill="#d2d3d5" d="M73.1 176.1H147v.64H73.1z"/><path class="cls-4" d="M10.9 10.5v110.3h121L23.7 10.5H10.9zM209 120.8V10.5H66.5l109.7 110.3H209z"/><path class="cls-5" d="M56.4.3H13.7l8 8.2h42.9L56.4.3zM164.2 153.8H209l-31.1-31.2h-44.3l30.6 31.2z"/><path d="M211.5 0H8.5A8.51 8.51 0 0 0 0 8.5v124.4h220V8.5a8.51 8.51 0 0 0-8.5-8.5zm-1.8 122.6H10.3V8.5h199.4z" fill="#1e2023"/><path d="M21.7 8.5H10.3v115.1h199.4V8.5zm185.3 3v109.4H12.9V11.5z" fill="#434a54"/></g><path class="cls-8" d="M12.19 10.42h195.62v111.19H12.19z"/><rect class="cls-9" x="19.04" y="66.11" width="19.79" height="6.46" rx="3.23" ry="3.23"/><rect class="cls-9" x="19.04" y="74.89" width="54.19" height="6.46" rx="3.23" ry="3.23"/><rect class="cls-9" x="19.04" y="83.68" width="54.19" height="6.46" rx="3.23" ry="3.23"/><rect class="cls-9" x="19.04" y="92.47" width="54.19" height="6.46" rx="3.23" ry="3.23"/><rect class="cls-9" x="19.04" y="101.43" width="54.19" height="6.46" rx="3.23" ry="3.23"/><rect class="cls-9" x="19.04" y="110.22" width="54.19" height="6.46" rx="3.23" ry="3.23"/><rect class="cls-9" x="82.7" y="66.11" width="19.79" height="6.46" rx="3.23" ry="3.23"/><rect class="cls-9" x="82.7" y="74.89" width="54.19" height="6.46" rx="3.23" ry="3.23"/><rect class="cls-9" x="82.7" y="83.68" width="54.19" height="6.46" rx="3.23" ry="3.23"/><rect class="cls-9" x="82.7" y="92.47" width="54.19" height="6.46" rx="3.23" ry="3.23"/><rect class="cls-9" x="82.7" y="101.43" width="54.19" height="6.46" rx="3.23" ry="3.23"/><rect class="cls-9" x="82.7" y="110.22" width="54.19" height="6.46" rx="3.23" ry="3.23"/><rect class="cls-9" x="146.69" y="66.11" width="19.79" height="6.46" rx="3.23" ry="3.23"/><rect class="cls-9" x="146.69" y="74.89" width="54.19" height="6.46" rx="3.23" ry="3.23"/><rect class="cls-9" x="146.69" y="83.68" width="54.19" height="6.46" rx="3.23" ry="3.23"/><rect class="cls-9" x="146.69" y="92.47" width="54.19" height="6.46" rx="3.23" ry="3.23"/><rect class="cls-9" x="146.69" y="101.43" width="54.19" height="6.46" rx="3.23" ry="3.23"/><rect class="cls-9" x="146.69" y="110.22" width="54.19" height="6.46" rx="3.23" ry="3.23"/><rect class="cls-9" x="19.04" y="27.38" width="181.91" height="32.09" rx="6" ry="6"/><path class="cls-8" d="M21.6 56.82h175.59l-27.5-20.5-28.38 16.81-39.39-10.62-35.94 10.7-24.36-5.79-20.02 9.4z"/><path fill="#656e79" d="M12.19 10.42h195.62v12.13H12.19z"/><rect class="cls-8" x="19.04" y="13.43" width="5.66" height="5.66" rx="2.83" ry="2.83"/><rect class="cls-9" x="31.59" y="13.43" width="18.3" height="5.66" rx="2.83" ry="2.83"/><rect class="cls-9" x="58.34" y="13.43" width="18.3" height="5.66" rx="2.83" ry="2.83"/><rect class="cls-9" x="84.99" y="13.43" width="18.3" height="5.66" rx="2.83" ry="2.83"/><rect class="cls-9" x="112.53" y="13.43" width="18.3" height="5.66" rx="2.83" ry="2.83"/></svg>
